<mxfile host="Electron" modified="2023-07-31T18:20:00.218Z" agent="Mozilla/5.0 (Windows NT 10.0; Win64; x64) AppleWebKit/537.36 (KHTML, like Gecko) draw.io/21.5.1 Chrome/112.0.5615.204 Electron/24.6.0 Safari/537.36" etag="N5PDlu865EJduqUhc9K8" version="21.5.1" type="device">
  <diagram name="Page-1" id="5ISJx8cQSmaascl3NAPS">
    <mxGraphModel dx="1290" dy="621" grid="1" gridSize="10" guides="1" tooltips="1" connect="1" arrows="1" fold="1" page="1" pageScale="1" pageWidth="850" pageHeight="1100" math="0" shadow="0">
      <root>
        <mxCell id="0" />
        <mxCell id="1" parent="0" />
        <mxCell id="oF-FLK1W2FaF4AJjvdiY-1" value="Bank" style="shape=table;startSize=30;container=1;collapsible=1;childLayout=tableLayout;fixedRows=1;rowLines=0;fontStyle=1;align=center;resizeLast=1;html=1;fillColor=#FF6666;" vertex="1" parent="1">
          <mxGeometry x="80" y="45" width="180" height="120" as="geometry" />
        </mxCell>
        <mxCell id="oF-FLK1W2FaF4AJjvdiY-2" value="" style="shape=tableRow;horizontal=0;startSize=0;swimlaneHead=0;swimlaneBody=0;fillColor=#FF6666;collapsible=0;dropTarget=0;points=[[0,0.5],[1,0.5]];portConstraint=eastwest;top=0;left=0;right=0;bottom=1;" vertex="1" parent="oF-FLK1W2FaF4AJjvdiY-1">
          <mxGeometry y="30" width="180" height="30" as="geometry" />
        </mxCell>
        <mxCell id="oF-FLK1W2FaF4AJjvdiY-3" value="PK" style="shape=partialRectangle;connectable=0;fillColor=#FF6666;top=0;left=0;bottom=0;right=0;fontStyle=1;overflow=hidden;whiteSpace=wrap;html=1;" vertex="1" parent="oF-FLK1W2FaF4AJjvdiY-2">
          <mxGeometry width="30" height="30" as="geometry">
            <mxRectangle width="30" height="30" as="alternateBounds" />
          </mxGeometry>
        </mxCell>
        <mxCell id="oF-FLK1W2FaF4AJjvdiY-4" value="code" style="shape=partialRectangle;connectable=0;fillColor=#FF6666;top=0;left=0;bottom=0;right=0;align=left;spacingLeft=6;fontStyle=5;overflow=hidden;whiteSpace=wrap;html=1;strokeColor=#00FF00;" vertex="1" parent="oF-FLK1W2FaF4AJjvdiY-2">
          <mxGeometry x="30" width="150" height="30" as="geometry">
            <mxRectangle width="150" height="30" as="alternateBounds" />
          </mxGeometry>
        </mxCell>
        <mxCell id="oF-FLK1W2FaF4AJjvdiY-5" value="" style="shape=tableRow;horizontal=0;startSize=0;swimlaneHead=0;swimlaneBody=0;fillColor=#FF6666;collapsible=0;dropTarget=0;points=[[0,0.5],[1,0.5]];portConstraint=eastwest;top=0;left=0;right=0;bottom=0;" vertex="1" parent="oF-FLK1W2FaF4AJjvdiY-1">
          <mxGeometry y="60" width="180" height="30" as="geometry" />
        </mxCell>
        <mxCell id="oF-FLK1W2FaF4AJjvdiY-6" value="" style="shape=partialRectangle;connectable=0;fillColor=#FF6666;top=0;left=0;bottom=0;right=0;editable=1;overflow=hidden;whiteSpace=wrap;html=1;" vertex="1" parent="oF-FLK1W2FaF4AJjvdiY-5">
          <mxGeometry width="30" height="30" as="geometry">
            <mxRectangle width="30" height="30" as="alternateBounds" />
          </mxGeometry>
        </mxCell>
        <mxCell id="oF-FLK1W2FaF4AJjvdiY-7" value="address" style="shape=partialRectangle;connectable=0;fillColor=#FF6666;top=0;left=0;bottom=0;right=0;align=left;spacingLeft=6;overflow=hidden;whiteSpace=wrap;html=1;strokeColor=#00FF00;" vertex="1" parent="oF-FLK1W2FaF4AJjvdiY-5">
          <mxGeometry x="30" width="150" height="30" as="geometry">
            <mxRectangle width="150" height="30" as="alternateBounds" />
          </mxGeometry>
        </mxCell>
        <mxCell id="oF-FLK1W2FaF4AJjvdiY-8" value="" style="shape=tableRow;horizontal=0;startSize=0;swimlaneHead=0;swimlaneBody=0;fillColor=#FF6666;collapsible=0;dropTarget=0;points=[[0,0.5],[1,0.5]];portConstraint=eastwest;top=0;left=0;right=0;bottom=0;" vertex="1" parent="oF-FLK1W2FaF4AJjvdiY-1">
          <mxGeometry y="90" width="180" height="30" as="geometry" />
        </mxCell>
        <mxCell id="oF-FLK1W2FaF4AJjvdiY-9" value="" style="shape=partialRectangle;connectable=0;fillColor=#FF6666;top=0;left=0;bottom=0;right=0;editable=1;overflow=hidden;whiteSpace=wrap;html=1;" vertex="1" parent="oF-FLK1W2FaF4AJjvdiY-8">
          <mxGeometry width="30" height="30" as="geometry">
            <mxRectangle width="30" height="30" as="alternateBounds" />
          </mxGeometry>
        </mxCell>
        <mxCell id="oF-FLK1W2FaF4AJjvdiY-10" value="name" style="shape=partialRectangle;connectable=0;fillColor=#FF6666;top=0;left=0;bottom=0;right=0;align=left;spacingLeft=6;overflow=hidden;whiteSpace=wrap;html=1;strokeColor=#00FF00;" vertex="1" parent="oF-FLK1W2FaF4AJjvdiY-8">
          <mxGeometry x="30" width="150" height="30" as="geometry">
            <mxRectangle width="150" height="30" as="alternateBounds" />
          </mxGeometry>
        </mxCell>
        <mxCell id="oF-FLK1W2FaF4AJjvdiY-14" value="Branch" style="shape=table;startSize=30;container=1;collapsible=1;childLayout=tableLayout;fixedRows=1;rowLines=0;fontStyle=1;align=center;resizeLast=1;html=1;fillColor=#FF6666;strokeColor=#00FF00;" vertex="1" parent="1">
          <mxGeometry x="310" y="30" width="180" height="150" as="geometry" />
        </mxCell>
        <mxCell id="oF-FLK1W2FaF4AJjvdiY-15" value="" style="shape=tableRow;horizontal=0;startSize=0;swimlaneHead=0;swimlaneBody=0;fillColor=#FF6666;collapsible=0;dropTarget=0;points=[[0,0.5],[1,0.5]];portConstraint=eastwest;top=0;left=0;right=0;bottom=1;strokeColor=#00FF00;" vertex="1" parent="oF-FLK1W2FaF4AJjvdiY-14">
          <mxGeometry y="30" width="180" height="30" as="geometry" />
        </mxCell>
        <mxCell id="oF-FLK1W2FaF4AJjvdiY-16" value="PK" style="shape=partialRectangle;connectable=0;fillColor=#FF6666;top=0;left=0;bottom=0;right=0;fontStyle=1;overflow=hidden;whiteSpace=wrap;html=1;strokeColor=#00FF00;" vertex="1" parent="oF-FLK1W2FaF4AJjvdiY-15">
          <mxGeometry width="30" height="30" as="geometry">
            <mxRectangle width="30" height="30" as="alternateBounds" />
          </mxGeometry>
        </mxCell>
        <mxCell id="oF-FLK1W2FaF4AJjvdiY-17" value="branch ID" style="shape=partialRectangle;connectable=0;fillColor=#FF6666;top=0;left=0;bottom=0;right=0;align=left;spacingLeft=6;fontStyle=5;overflow=hidden;whiteSpace=wrap;html=1;strokeColor=#00FF00;" vertex="1" parent="oF-FLK1W2FaF4AJjvdiY-15">
          <mxGeometry x="30" width="150" height="30" as="geometry">
            <mxRectangle width="150" height="30" as="alternateBounds" />
          </mxGeometry>
        </mxCell>
        <mxCell id="oF-FLK1W2FaF4AJjvdiY-18" value="" style="shape=tableRow;horizontal=0;startSize=0;swimlaneHead=0;swimlaneBody=0;fillColor=#FF6666;collapsible=0;dropTarget=0;points=[[0,0.5],[1,0.5]];portConstraint=eastwest;top=0;left=0;right=0;bottom=0;strokeColor=#00FF00;" vertex="1" parent="oF-FLK1W2FaF4AJjvdiY-14">
          <mxGeometry y="60" width="180" height="30" as="geometry" />
        </mxCell>
        <mxCell id="oF-FLK1W2FaF4AJjvdiY-19" value="" style="shape=partialRectangle;connectable=0;fillColor=#FF6666;top=0;left=0;bottom=0;right=0;editable=1;overflow=hidden;whiteSpace=wrap;html=1;strokeColor=#00FF00;" vertex="1" parent="oF-FLK1W2FaF4AJjvdiY-18">
          <mxGeometry width="30" height="30" as="geometry">
            <mxRectangle width="30" height="30" as="alternateBounds" />
          </mxGeometry>
        </mxCell>
        <mxCell id="oF-FLK1W2FaF4AJjvdiY-20" value="name" style="shape=partialRectangle;connectable=0;fillColor=#FF6666;top=0;left=0;bottom=0;right=0;align=left;spacingLeft=6;overflow=hidden;whiteSpace=wrap;html=1;strokeColor=#00FF00;" vertex="1" parent="oF-FLK1W2FaF4AJjvdiY-18">
          <mxGeometry x="30" width="150" height="30" as="geometry">
            <mxRectangle width="150" height="30" as="alternateBounds" />
          </mxGeometry>
        </mxCell>
        <mxCell id="oF-FLK1W2FaF4AJjvdiY-21" value="" style="shape=tableRow;horizontal=0;startSize=0;swimlaneHead=0;swimlaneBody=0;fillColor=#FF6666;collapsible=0;dropTarget=0;points=[[0,0.5],[1,0.5]];portConstraint=eastwest;top=0;left=0;right=0;bottom=0;strokeColor=#00FF00;" vertex="1" parent="oF-FLK1W2FaF4AJjvdiY-14">
          <mxGeometry y="90" width="180" height="30" as="geometry" />
        </mxCell>
        <mxCell id="oF-FLK1W2FaF4AJjvdiY-22" value="" style="shape=partialRectangle;connectable=0;fillColor=#FF6666;top=0;left=0;bottom=0;right=0;editable=1;overflow=hidden;whiteSpace=wrap;html=1;strokeColor=#00FF00;" vertex="1" parent="oF-FLK1W2FaF4AJjvdiY-21">
          <mxGeometry width="30" height="30" as="geometry">
            <mxRectangle width="30" height="30" as="alternateBounds" />
          </mxGeometry>
        </mxCell>
        <mxCell id="oF-FLK1W2FaF4AJjvdiY-23" value="address" style="shape=partialRectangle;connectable=0;fillColor=#FF6666;top=0;left=0;bottom=0;right=0;align=left;spacingLeft=6;overflow=hidden;whiteSpace=wrap;html=1;strokeColor=#00FF00;" vertex="1" parent="oF-FLK1W2FaF4AJjvdiY-21">
          <mxGeometry x="30" width="150" height="30" as="geometry">
            <mxRectangle width="150" height="30" as="alternateBounds" />
          </mxGeometry>
        </mxCell>
        <mxCell id="oF-FLK1W2FaF4AJjvdiY-128" value="" style="shape=tableRow;horizontal=0;startSize=0;swimlaneHead=0;swimlaneBody=0;fillColor=#FF6666;collapsible=0;dropTarget=0;points=[[0,0.5],[1,0.5]];portConstraint=eastwest;top=0;left=0;right=0;bottom=1;strokeColor=#00FF00;" vertex="1" parent="oF-FLK1W2FaF4AJjvdiY-14">
          <mxGeometry y="120" width="180" height="30" as="geometry" />
        </mxCell>
        <mxCell id="oF-FLK1W2FaF4AJjvdiY-129" value="FK" style="shape=partialRectangle;connectable=0;fillColor=#FF6666;top=0;left=0;bottom=0;right=0;fontStyle=1;overflow=hidden;whiteSpace=wrap;html=1;strokeColor=#00FF00;" vertex="1" parent="oF-FLK1W2FaF4AJjvdiY-128">
          <mxGeometry width="30" height="30" as="geometry">
            <mxRectangle width="30" height="30" as="alternateBounds" />
          </mxGeometry>
        </mxCell>
        <mxCell id="oF-FLK1W2FaF4AJjvdiY-130" value="code" style="shape=partialRectangle;connectable=0;fillColor=#FF6666;top=0;left=0;bottom=0;right=0;align=left;spacingLeft=6;fontStyle=5;overflow=hidden;whiteSpace=wrap;html=1;strokeColor=#00FF00;" vertex="1" parent="oF-FLK1W2FaF4AJjvdiY-128">
          <mxGeometry x="30" width="150" height="30" as="geometry">
            <mxRectangle width="150" height="30" as="alternateBounds" />
          </mxGeometry>
        </mxCell>
        <mxCell id="oF-FLK1W2FaF4AJjvdiY-27" value="Customer" style="shape=table;startSize=30;container=1;collapsible=1;childLayout=tableLayout;fixedRows=1;rowLines=0;fontStyle=1;align=center;resizeLast=1;html=1;fillColor=#FF6666;" vertex="1" parent="1">
          <mxGeometry x="80" y="190" width="180" height="120" as="geometry" />
        </mxCell>
        <mxCell id="oF-FLK1W2FaF4AJjvdiY-28" value="" style="shape=tableRow;horizontal=0;startSize=0;swimlaneHead=0;swimlaneBody=0;fillColor=#FF6666;collapsible=0;dropTarget=0;points=[[0,0.5],[1,0.5]];portConstraint=eastwest;top=0;left=0;right=0;bottom=1;" vertex="1" parent="oF-FLK1W2FaF4AJjvdiY-27">
          <mxGeometry y="30" width="180" height="30" as="geometry" />
        </mxCell>
        <mxCell id="oF-FLK1W2FaF4AJjvdiY-29" value="PK" style="shape=partialRectangle;connectable=0;fillColor=#FF6666;top=0;left=0;bottom=0;right=0;fontStyle=1;overflow=hidden;whiteSpace=wrap;html=1;" vertex="1" parent="oF-FLK1W2FaF4AJjvdiY-28">
          <mxGeometry width="30" height="30" as="geometry">
            <mxRectangle width="30" height="30" as="alternateBounds" />
          </mxGeometry>
        </mxCell>
        <mxCell id="oF-FLK1W2FaF4AJjvdiY-30" value="custID" style="shape=partialRectangle;connectable=0;fillColor=#FF6666;top=0;left=0;bottom=0;right=0;align=left;spacingLeft=6;fontStyle=5;overflow=hidden;whiteSpace=wrap;html=1;strokeColor=#00FF00;" vertex="1" parent="oF-FLK1W2FaF4AJjvdiY-28">
          <mxGeometry x="30" width="150" height="30" as="geometry">
            <mxRectangle width="150" height="30" as="alternateBounds" />
          </mxGeometry>
        </mxCell>
        <mxCell id="oF-FLK1W2FaF4AJjvdiY-31" value="" style="shape=tableRow;horizontal=0;startSize=0;swimlaneHead=0;swimlaneBody=0;fillColor=#FF6666;collapsible=0;dropTarget=0;points=[[0,0.5],[1,0.5]];portConstraint=eastwest;top=0;left=0;right=0;bottom=0;" vertex="1" parent="oF-FLK1W2FaF4AJjvdiY-27">
          <mxGeometry y="60" width="180" height="30" as="geometry" />
        </mxCell>
        <mxCell id="oF-FLK1W2FaF4AJjvdiY-32" value="" style="shape=partialRectangle;connectable=0;fillColor=#FF6666;top=0;left=0;bottom=0;right=0;editable=1;overflow=hidden;whiteSpace=wrap;html=1;" vertex="1" parent="oF-FLK1W2FaF4AJjvdiY-31">
          <mxGeometry width="30" height="30" as="geometry">
            <mxRectangle width="30" height="30" as="alternateBounds" />
          </mxGeometry>
        </mxCell>
        <mxCell id="oF-FLK1W2FaF4AJjvdiY-33" value="name" style="shape=partialRectangle;connectable=0;fillColor=#FF6666;top=0;left=0;bottom=0;right=0;align=left;spacingLeft=6;overflow=hidden;whiteSpace=wrap;html=1;strokeColor=#00FF00;" vertex="1" parent="oF-FLK1W2FaF4AJjvdiY-31">
          <mxGeometry x="30" width="150" height="30" as="geometry">
            <mxRectangle width="150" height="30" as="alternateBounds" />
          </mxGeometry>
        </mxCell>
        <mxCell id="oF-FLK1W2FaF4AJjvdiY-34" value="" style="shape=tableRow;horizontal=0;startSize=0;swimlaneHead=0;swimlaneBody=0;fillColor=#FF6666;collapsible=0;dropTarget=0;points=[[0,0.5],[1,0.5]];portConstraint=eastwest;top=0;left=0;right=0;bottom=0;" vertex="1" parent="oF-FLK1W2FaF4AJjvdiY-27">
          <mxGeometry y="90" width="180" height="30" as="geometry" />
        </mxCell>
        <mxCell id="oF-FLK1W2FaF4AJjvdiY-35" value="" style="shape=partialRectangle;connectable=0;fillColor=#FF6666;top=0;left=0;bottom=0;right=0;editable=1;overflow=hidden;whiteSpace=wrap;html=1;" vertex="1" parent="oF-FLK1W2FaF4AJjvdiY-34">
          <mxGeometry width="30" height="30" as="geometry">
            <mxRectangle width="30" height="30" as="alternateBounds" />
          </mxGeometry>
        </mxCell>
        <mxCell id="oF-FLK1W2FaF4AJjvdiY-36" value="address" style="shape=partialRectangle;connectable=0;fillColor=#FF6666;top=0;left=0;bottom=0;right=0;align=left;spacingLeft=6;overflow=hidden;whiteSpace=wrap;html=1;strokeColor=#00FF00;" vertex="1" parent="oF-FLK1W2FaF4AJjvdiY-34">
          <mxGeometry x="30" width="150" height="30" as="geometry">
            <mxRectangle width="150" height="30" as="alternateBounds" />
          </mxGeometry>
        </mxCell>
        <mxCell id="oF-FLK1W2FaF4AJjvdiY-40" value="Phone" style="shape=table;startSize=30;container=1;collapsible=1;childLayout=tableLayout;fixedRows=1;rowLines=0;fontStyle=1;align=center;resizeLast=1;html=1;fillColor=#FF6666;strokeColor=#00FF00;" vertex="1" parent="1">
          <mxGeometry x="310" y="250" width="180" height="90" as="geometry" />
        </mxCell>
        <mxCell id="oF-FLK1W2FaF4AJjvdiY-41" value="" style="shape=tableRow;horizontal=0;startSize=0;swimlaneHead=0;swimlaneBody=0;fillColor=#FF6666;collapsible=0;dropTarget=0;points=[[0,0.5],[1,0.5]];portConstraint=eastwest;top=0;left=0;right=0;bottom=1;strokeColor=#00FF00;" vertex="1" parent="oF-FLK1W2FaF4AJjvdiY-40">
          <mxGeometry y="30" width="180" height="30" as="geometry" />
        </mxCell>
        <mxCell id="oF-FLK1W2FaF4AJjvdiY-42" value="PK" style="shape=partialRectangle;connectable=0;fillColor=#FF6666;top=0;left=0;bottom=0;right=0;fontStyle=1;overflow=hidden;whiteSpace=wrap;html=1;strokeColor=#00FF00;" vertex="1" parent="oF-FLK1W2FaF4AJjvdiY-41">
          <mxGeometry width="30" height="30" as="geometry">
            <mxRectangle width="30" height="30" as="alternateBounds" />
          </mxGeometry>
        </mxCell>
        <mxCell id="oF-FLK1W2FaF4AJjvdiY-43" value="PhoneID" style="shape=partialRectangle;connectable=0;fillColor=#FF6666;top=0;left=0;bottom=0;right=0;align=left;spacingLeft=6;fontStyle=5;overflow=hidden;whiteSpace=wrap;html=1;strokeColor=#00FF00;" vertex="1" parent="oF-FLK1W2FaF4AJjvdiY-41">
          <mxGeometry x="30" width="150" height="30" as="geometry">
            <mxRectangle width="150" height="30" as="alternateBounds" />
          </mxGeometry>
        </mxCell>
        <mxCell id="oF-FLK1W2FaF4AJjvdiY-66" value="" style="shape=tableRow;horizontal=0;startSize=0;swimlaneHead=0;swimlaneBody=0;fillColor=#FF6666;collapsible=0;dropTarget=0;points=[[0,0.5],[1,0.5]];portConstraint=eastwest;top=0;left=0;right=0;bottom=1;strokeColor=#00FF00;" vertex="1" parent="oF-FLK1W2FaF4AJjvdiY-40">
          <mxGeometry y="60" width="180" height="30" as="geometry" />
        </mxCell>
        <mxCell id="oF-FLK1W2FaF4AJjvdiY-67" value="FK" style="shape=partialRectangle;connectable=0;fillColor=#FF6666;top=0;left=0;bottom=0;right=0;fontStyle=1;overflow=hidden;whiteSpace=wrap;html=1;strokeColor=#00FF00;" vertex="1" parent="oF-FLK1W2FaF4AJjvdiY-66">
          <mxGeometry width="30" height="30" as="geometry">
            <mxRectangle width="30" height="30" as="alternateBounds" />
          </mxGeometry>
        </mxCell>
        <mxCell id="oF-FLK1W2FaF4AJjvdiY-68" value="custID" style="shape=partialRectangle;connectable=0;fillColor=#FF6666;top=0;left=0;bottom=0;right=0;align=left;spacingLeft=6;fontStyle=5;overflow=hidden;whiteSpace=wrap;html=1;strokeColor=#00FF00;" vertex="1" parent="oF-FLK1W2FaF4AJjvdiY-66">
          <mxGeometry x="30" width="150" height="30" as="geometry">
            <mxRectangle width="150" height="30" as="alternateBounds" />
          </mxGeometry>
        </mxCell>
        <mxCell id="oF-FLK1W2FaF4AJjvdiY-69" value="Account" style="shape=table;startSize=30;container=1;collapsible=1;childLayout=tableLayout;fixedRows=1;rowLines=0;fontStyle=1;align=center;resizeLast=1;html=1;fillColor=#FF6666;strokeColor=#00FF00;" vertex="1" parent="1">
          <mxGeometry x="410" y="370" width="180" height="150" as="geometry" />
        </mxCell>
        <mxCell id="oF-FLK1W2FaF4AJjvdiY-70" value="" style="shape=tableRow;horizontal=0;startSize=0;swimlaneHead=0;swimlaneBody=0;fillColor=#FF6666;collapsible=0;dropTarget=0;points=[[0,0.5],[1,0.5]];portConstraint=eastwest;top=0;left=0;right=0;bottom=1;strokeColor=#00FF00;" vertex="1" parent="oF-FLK1W2FaF4AJjvdiY-69">
          <mxGeometry y="30" width="180" height="30" as="geometry" />
        </mxCell>
        <mxCell id="oF-FLK1W2FaF4AJjvdiY-71" value="PK" style="shape=partialRectangle;connectable=0;fillColor=#FF6666;top=0;left=0;bottom=0;right=0;fontStyle=1;overflow=hidden;whiteSpace=wrap;html=1;strokeColor=#00FF00;" vertex="1" parent="oF-FLK1W2FaF4AJjvdiY-70">
          <mxGeometry width="30" height="30" as="geometry">
            <mxRectangle width="30" height="30" as="alternateBounds" />
          </mxGeometry>
        </mxCell>
        <mxCell id="oF-FLK1W2FaF4AJjvdiY-72" value="Acc no" style="shape=partialRectangle;connectable=0;fillColor=#FF6666;top=0;left=0;bottom=0;right=0;align=left;spacingLeft=6;fontStyle=5;overflow=hidden;whiteSpace=wrap;html=1;strokeColor=#00FF00;" vertex="1" parent="oF-FLK1W2FaF4AJjvdiY-70">
          <mxGeometry x="30" width="150" height="30" as="geometry">
            <mxRectangle width="150" height="30" as="alternateBounds" />
          </mxGeometry>
        </mxCell>
        <mxCell id="oF-FLK1W2FaF4AJjvdiY-73" value="" style="shape=tableRow;horizontal=0;startSize=0;swimlaneHead=0;swimlaneBody=0;fillColor=#FF6666;collapsible=0;dropTarget=0;points=[[0,0.5],[1,0.5]];portConstraint=eastwest;top=0;left=0;right=0;bottom=0;strokeColor=#00FF00;" vertex="1" parent="oF-FLK1W2FaF4AJjvdiY-69">
          <mxGeometry y="60" width="180" height="30" as="geometry" />
        </mxCell>
        <mxCell id="oF-FLK1W2FaF4AJjvdiY-74" value="" style="shape=partialRectangle;connectable=0;fillColor=#FF6666;top=0;left=0;bottom=0;right=0;editable=1;overflow=hidden;whiteSpace=wrap;html=1;strokeColor=#00FF00;" vertex="1" parent="oF-FLK1W2FaF4AJjvdiY-73">
          <mxGeometry width="30" height="30" as="geometry">
            <mxRectangle width="30" height="30" as="alternateBounds" />
          </mxGeometry>
        </mxCell>
        <mxCell id="oF-FLK1W2FaF4AJjvdiY-75" value="acc name" style="shape=partialRectangle;connectable=0;fillColor=#FF6666;top=0;left=0;bottom=0;right=0;align=left;spacingLeft=6;overflow=hidden;whiteSpace=wrap;html=1;strokeColor=#00FF00;" vertex="1" parent="oF-FLK1W2FaF4AJjvdiY-73">
          <mxGeometry x="30" width="150" height="30" as="geometry">
            <mxRectangle width="150" height="30" as="alternateBounds" />
          </mxGeometry>
        </mxCell>
        <mxCell id="oF-FLK1W2FaF4AJjvdiY-76" value="" style="shape=tableRow;horizontal=0;startSize=0;swimlaneHead=0;swimlaneBody=0;fillColor=#FF6666;collapsible=0;dropTarget=0;points=[[0,0.5],[1,0.5]];portConstraint=eastwest;top=0;left=0;right=0;bottom=0;strokeColor=#00FF00;" vertex="1" parent="oF-FLK1W2FaF4AJjvdiY-69">
          <mxGeometry y="90" width="180" height="30" as="geometry" />
        </mxCell>
        <mxCell id="oF-FLK1W2FaF4AJjvdiY-77" value="" style="shape=partialRectangle;connectable=0;fillColor=#FF6666;top=0;left=0;bottom=0;right=0;editable=1;overflow=hidden;whiteSpace=wrap;html=1;strokeColor=#00FF00;" vertex="1" parent="oF-FLK1W2FaF4AJjvdiY-76">
          <mxGeometry width="30" height="30" as="geometry">
            <mxRectangle width="30" height="30" as="alternateBounds" />
          </mxGeometry>
        </mxCell>
        <mxCell id="oF-FLK1W2FaF4AJjvdiY-78" value="balance" style="shape=partialRectangle;connectable=0;fillColor=#FF6666;top=0;left=0;bottom=0;right=0;align=left;spacingLeft=6;overflow=hidden;whiteSpace=wrap;html=1;strokeColor=#00FF00;" vertex="1" parent="oF-FLK1W2FaF4AJjvdiY-76">
          <mxGeometry x="30" width="150" height="30" as="geometry">
            <mxRectangle width="150" height="30" as="alternateBounds" />
          </mxGeometry>
        </mxCell>
        <mxCell id="oF-FLK1W2FaF4AJjvdiY-99" value="" style="shape=tableRow;horizontal=0;startSize=0;swimlaneHead=0;swimlaneBody=0;fillColor=#FF6666;collapsible=0;dropTarget=0;points=[[0,0.5],[1,0.5]];portConstraint=eastwest;top=0;left=0;right=0;bottom=1;strokeColor=#00FF00;" vertex="1" parent="oF-FLK1W2FaF4AJjvdiY-69">
          <mxGeometry y="120" width="180" height="30" as="geometry" />
        </mxCell>
        <mxCell id="oF-FLK1W2FaF4AJjvdiY-100" value="FK" style="shape=partialRectangle;connectable=0;fillColor=#FF6666;top=0;left=0;bottom=0;right=0;fontStyle=1;overflow=hidden;whiteSpace=wrap;html=1;strokeColor=#00FF00;" vertex="1" parent="oF-FLK1W2FaF4AJjvdiY-99">
          <mxGeometry width="30" height="30" as="geometry">
            <mxRectangle width="30" height="30" as="alternateBounds" />
          </mxGeometry>
        </mxCell>
        <mxCell id="oF-FLK1W2FaF4AJjvdiY-101" value="branch ID" style="shape=partialRectangle;connectable=0;fillColor=#FF6666;top=0;left=0;bottom=0;right=0;align=left;spacingLeft=6;fontStyle=5;overflow=hidden;whiteSpace=wrap;html=1;strokeColor=#00FF00;" vertex="1" parent="oF-FLK1W2FaF4AJjvdiY-99">
          <mxGeometry x="30" width="150" height="30" as="geometry">
            <mxRectangle width="150" height="30" as="alternateBounds" />
          </mxGeometry>
        </mxCell>
        <mxCell id="oF-FLK1W2FaF4AJjvdiY-83" value="Loan" style="shape=table;startSize=30;container=1;collapsible=1;childLayout=tableLayout;fixedRows=1;rowLines=0;fontStyle=1;align=center;resizeLast=1;html=1;fillColor=#FF6666;strokeColor=#00FF00;" vertex="1" parent="1">
          <mxGeometry x="150" y="370" width="180" height="150" as="geometry" />
        </mxCell>
        <mxCell id="oF-FLK1W2FaF4AJjvdiY-84" value="" style="shape=tableRow;horizontal=0;startSize=0;swimlaneHead=0;swimlaneBody=0;fillColor=#FF6666;collapsible=0;dropTarget=0;points=[[0,0.5],[1,0.5]];portConstraint=eastwest;top=0;left=0;right=0;bottom=1;strokeColor=#00FF00;" vertex="1" parent="oF-FLK1W2FaF4AJjvdiY-83">
          <mxGeometry y="30" width="180" height="30" as="geometry" />
        </mxCell>
        <mxCell id="oF-FLK1W2FaF4AJjvdiY-85" value="PK" style="shape=partialRectangle;connectable=0;fillColor=#FF6666;top=0;left=0;bottom=0;right=0;fontStyle=1;overflow=hidden;whiteSpace=wrap;html=1;strokeColor=#00FF00;" vertex="1" parent="oF-FLK1W2FaF4AJjvdiY-84">
          <mxGeometry width="30" height="30" as="geometry">
            <mxRectangle width="30" height="30" as="alternateBounds" />
          </mxGeometry>
        </mxCell>
        <mxCell id="oF-FLK1W2FaF4AJjvdiY-86" value="Loan ID" style="shape=partialRectangle;connectable=0;fillColor=#FF6666;top=0;left=0;bottom=0;right=0;align=left;spacingLeft=6;fontStyle=5;overflow=hidden;whiteSpace=wrap;html=1;strokeColor=#00FF00;" vertex="1" parent="oF-FLK1W2FaF4AJjvdiY-84">
          <mxGeometry x="30" width="150" height="30" as="geometry">
            <mxRectangle width="150" height="30" as="alternateBounds" />
          </mxGeometry>
        </mxCell>
        <mxCell id="oF-FLK1W2FaF4AJjvdiY-87" value="" style="shape=tableRow;horizontal=0;startSize=0;swimlaneHead=0;swimlaneBody=0;fillColor=#FF6666;collapsible=0;dropTarget=0;points=[[0,0.5],[1,0.5]];portConstraint=eastwest;top=0;left=0;right=0;bottom=0;strokeColor=#00FF00;" vertex="1" parent="oF-FLK1W2FaF4AJjvdiY-83">
          <mxGeometry y="60" width="180" height="30" as="geometry" />
        </mxCell>
        <mxCell id="oF-FLK1W2FaF4AJjvdiY-88" value="" style="shape=partialRectangle;connectable=0;fillColor=#FF6666;top=0;left=0;bottom=0;right=0;editable=1;overflow=hidden;whiteSpace=wrap;html=1;strokeColor=#00FF00;" vertex="1" parent="oF-FLK1W2FaF4AJjvdiY-87">
          <mxGeometry width="30" height="30" as="geometry">
            <mxRectangle width="30" height="30" as="alternateBounds" />
          </mxGeometry>
        </mxCell>
        <mxCell id="oF-FLK1W2FaF4AJjvdiY-89" value="loan type" style="shape=partialRectangle;connectable=0;fillColor=#FF6666;top=0;left=0;bottom=0;right=0;align=left;spacingLeft=6;overflow=hidden;whiteSpace=wrap;html=1;strokeColor=#00FF00;" vertex="1" parent="oF-FLK1W2FaF4AJjvdiY-87">
          <mxGeometry x="30" width="150" height="30" as="geometry">
            <mxRectangle width="150" height="30" as="alternateBounds" />
          </mxGeometry>
        </mxCell>
        <mxCell id="oF-FLK1W2FaF4AJjvdiY-90" value="" style="shape=tableRow;horizontal=0;startSize=0;swimlaneHead=0;swimlaneBody=0;fillColor=#FF6666;collapsible=0;dropTarget=0;points=[[0,0.5],[1,0.5]];portConstraint=eastwest;top=0;left=0;right=0;bottom=0;strokeColor=#00FF00;" vertex="1" parent="oF-FLK1W2FaF4AJjvdiY-83">
          <mxGeometry y="90" width="180" height="30" as="geometry" />
        </mxCell>
        <mxCell id="oF-FLK1W2FaF4AJjvdiY-91" value="" style="shape=partialRectangle;connectable=0;fillColor=#FF6666;top=0;left=0;bottom=0;right=0;editable=1;overflow=hidden;whiteSpace=wrap;html=1;strokeColor=#00FF00;" vertex="1" parent="oF-FLK1W2FaF4AJjvdiY-90">
          <mxGeometry width="30" height="30" as="geometry">
            <mxRectangle width="30" height="30" as="alternateBounds" />
          </mxGeometry>
        </mxCell>
        <mxCell id="oF-FLK1W2FaF4AJjvdiY-92" value="amount" style="shape=partialRectangle;connectable=0;fillColor=#FF6666;top=0;left=0;bottom=0;right=0;align=left;spacingLeft=6;overflow=hidden;whiteSpace=wrap;html=1;strokeColor=#00FF00;" vertex="1" parent="oF-FLK1W2FaF4AJjvdiY-90">
          <mxGeometry x="30" width="150" height="30" as="geometry">
            <mxRectangle width="150" height="30" as="alternateBounds" />
          </mxGeometry>
        </mxCell>
        <mxCell id="oF-FLK1W2FaF4AJjvdiY-96" value="" style="shape=tableRow;horizontal=0;startSize=0;swimlaneHead=0;swimlaneBody=0;fillColor=#FF6666;collapsible=0;dropTarget=0;points=[[0,0.5],[1,0.5]];portConstraint=eastwest;top=0;left=0;right=0;bottom=1;strokeColor=#00FF00;" vertex="1" parent="oF-FLK1W2FaF4AJjvdiY-83">
          <mxGeometry y="120" width="180" height="30" as="geometry" />
        </mxCell>
        <mxCell id="oF-FLK1W2FaF4AJjvdiY-97" value="FK" style="shape=partialRectangle;connectable=0;fillColor=#FF6666;top=0;left=0;bottom=0;right=0;fontStyle=1;overflow=hidden;whiteSpace=wrap;html=1;strokeColor=#00FF00;" vertex="1" parent="oF-FLK1W2FaF4AJjvdiY-96">
          <mxGeometry width="30" height="30" as="geometry">
            <mxRectangle width="30" height="30" as="alternateBounds" />
          </mxGeometry>
        </mxCell>
        <mxCell id="oF-FLK1W2FaF4AJjvdiY-98" value="branch ID" style="shape=partialRectangle;connectable=0;fillColor=#FF6666;top=0;left=0;bottom=0;right=0;align=left;spacingLeft=6;fontStyle=5;overflow=hidden;whiteSpace=wrap;html=1;strokeColor=#00FF00;" vertex="1" parent="oF-FLK1W2FaF4AJjvdiY-96">
          <mxGeometry x="30" width="150" height="30" as="geometry">
            <mxRectangle width="150" height="30" as="alternateBounds" />
          </mxGeometry>
        </mxCell>
        <mxCell id="oF-FLK1W2FaF4AJjvdiY-102" value="Hold by" style="shape=table;startSize=30;container=1;collapsible=1;childLayout=tableLayout;fixedRows=1;rowLines=0;fontStyle=1;align=center;resizeLast=1;html=1;whiteSpace=wrap;fillColor=#FF6666;strokeColor=#00FF00;" vertex="1" parent="1">
          <mxGeometry x="660" y="340" width="180" height="90" as="geometry" />
        </mxCell>
        <mxCell id="oF-FLK1W2FaF4AJjvdiY-103" value="" style="shape=tableRow;horizontal=0;startSize=0;swimlaneHead=0;swimlaneBody=0;fillColor=#FF6666;collapsible=0;dropTarget=0;points=[[0,0.5],[1,0.5]];portConstraint=eastwest;top=0;left=0;right=0;bottom=0;html=1;strokeColor=#00FF00;" vertex="1" parent="oF-FLK1W2FaF4AJjvdiY-102">
          <mxGeometry y="30" width="180" height="30" as="geometry" />
        </mxCell>
        <mxCell id="oF-FLK1W2FaF4AJjvdiY-104" value="PK,FK1" style="shape=partialRectangle;connectable=0;fillColor=#FF6666;top=0;left=0;bottom=0;right=0;fontStyle=1;overflow=hidden;html=1;whiteSpace=wrap;strokeColor=#00FF00;" vertex="1" parent="oF-FLK1W2FaF4AJjvdiY-103">
          <mxGeometry width="60" height="30" as="geometry">
            <mxRectangle width="60" height="30" as="alternateBounds" />
          </mxGeometry>
        </mxCell>
        <mxCell id="oF-FLK1W2FaF4AJjvdiY-105" value="Acc no" style="shape=partialRectangle;connectable=0;fillColor=#FF6666;top=0;left=0;bottom=0;right=0;align=left;spacingLeft=6;fontStyle=5;overflow=hidden;html=1;whiteSpace=wrap;strokeColor=#00FF00;" vertex="1" parent="oF-FLK1W2FaF4AJjvdiY-103">
          <mxGeometry x="60" width="120" height="30" as="geometry">
            <mxRectangle width="120" height="30" as="alternateBounds" />
          </mxGeometry>
        </mxCell>
        <mxCell id="oF-FLK1W2FaF4AJjvdiY-106" value="" style="shape=tableRow;horizontal=0;startSize=0;swimlaneHead=0;swimlaneBody=0;fillColor=#FF6666;collapsible=0;dropTarget=0;points=[[0,0.5],[1,0.5]];portConstraint=eastwest;top=0;left=0;right=0;bottom=1;html=1;strokeColor=#00FF00;" vertex="1" parent="oF-FLK1W2FaF4AJjvdiY-102">
          <mxGeometry y="60" width="180" height="30" as="geometry" />
        </mxCell>
        <mxCell id="oF-FLK1W2FaF4AJjvdiY-107" value="PK,FK2" style="shape=partialRectangle;connectable=0;fillColor=#FF6666;top=0;left=0;bottom=0;right=0;fontStyle=1;overflow=hidden;html=1;whiteSpace=wrap;strokeColor=#00FF00;" vertex="1" parent="oF-FLK1W2FaF4AJjvdiY-106">
          <mxGeometry width="60" height="30" as="geometry">
            <mxRectangle width="60" height="30" as="alternateBounds" />
          </mxGeometry>
        </mxCell>
        <mxCell id="oF-FLK1W2FaF4AJjvdiY-108" value="custID" style="shape=partialRectangle;connectable=0;fillColor=#FF6666;top=0;left=0;bottom=0;right=0;align=left;spacingLeft=6;fontStyle=5;overflow=hidden;html=1;whiteSpace=wrap;strokeColor=#00FF00;" vertex="1" parent="oF-FLK1W2FaF4AJjvdiY-106">
          <mxGeometry x="60" width="120" height="30" as="geometry">
            <mxRectangle width="120" height="30" as="alternateBounds" />
          </mxGeometry>
        </mxCell>
        <mxCell id="oF-FLK1W2FaF4AJjvdiY-115" value="Available by" style="shape=table;startSize=30;container=1;collapsible=1;childLayout=tableLayout;fixedRows=1;rowLines=0;fontStyle=1;align=center;resizeLast=1;html=1;whiteSpace=wrap;fillColor=#FF6666;strokeColor=#00FF00;" vertex="1" parent="1">
          <mxGeometry x="200" y="560" width="170" height="90" as="geometry" />
        </mxCell>
        <mxCell id="oF-FLK1W2FaF4AJjvdiY-116" value="" style="shape=tableRow;horizontal=0;startSize=0;swimlaneHead=0;swimlaneBody=0;fillColor=#FF6666;collapsible=0;dropTarget=0;points=[[0,0.5],[1,0.5]];portConstraint=eastwest;top=0;left=0;right=0;bottom=0;html=1;strokeColor=#00FF00;" vertex="1" parent="oF-FLK1W2FaF4AJjvdiY-115">
          <mxGeometry y="30" width="170" height="30" as="geometry" />
        </mxCell>
        <mxCell id="oF-FLK1W2FaF4AJjvdiY-117" value="PK,FK1" style="shape=partialRectangle;connectable=0;fillColor=#FF6666;top=0;left=0;bottom=0;right=0;fontStyle=1;overflow=hidden;html=1;whiteSpace=wrap;strokeColor=#00FF00;" vertex="1" parent="oF-FLK1W2FaF4AJjvdiY-116">
          <mxGeometry width="60" height="30" as="geometry">
            <mxRectangle width="60" height="30" as="alternateBounds" />
          </mxGeometry>
        </mxCell>
        <mxCell id="oF-FLK1W2FaF4AJjvdiY-118" value="Loan ID" style="shape=partialRectangle;connectable=0;fillColor=#FF6666;top=0;left=0;bottom=0;right=0;align=left;spacingLeft=6;fontStyle=5;overflow=hidden;html=1;whiteSpace=wrap;strokeColor=#00FF00;" vertex="1" parent="oF-FLK1W2FaF4AJjvdiY-116">
          <mxGeometry x="60" width="110" height="30" as="geometry">
            <mxRectangle width="110" height="30" as="alternateBounds" />
          </mxGeometry>
        </mxCell>
        <mxCell id="oF-FLK1W2FaF4AJjvdiY-119" value="" style="shape=tableRow;horizontal=0;startSize=0;swimlaneHead=0;swimlaneBody=0;fillColor=#FF6666;collapsible=0;dropTarget=0;points=[[0,0.5],[1,0.5]];portConstraint=eastwest;top=0;left=0;right=0;bottom=1;html=1;strokeColor=#00FF00;" vertex="1" parent="oF-FLK1W2FaF4AJjvdiY-115">
          <mxGeometry y="60" width="170" height="30" as="geometry" />
        </mxCell>
        <mxCell id="oF-FLK1W2FaF4AJjvdiY-120" value="PK,FK2" style="shape=partialRectangle;connectable=0;fillColor=#FF6666;top=0;left=0;bottom=0;right=0;fontStyle=1;overflow=hidden;html=1;whiteSpace=wrap;strokeColor=#00FF00;" vertex="1" parent="oF-FLK1W2FaF4AJjvdiY-119">
          <mxGeometry width="60" height="30" as="geometry">
            <mxRectangle width="60" height="30" as="alternateBounds" />
          </mxGeometry>
        </mxCell>
        <mxCell id="oF-FLK1W2FaF4AJjvdiY-121" value="custID" style="shape=partialRectangle;connectable=0;fillColor=#FF6666;top=0;left=0;bottom=0;right=0;align=left;spacingLeft=6;fontStyle=5;overflow=hidden;html=1;whiteSpace=wrap;strokeColor=#00FF00;" vertex="1" parent="oF-FLK1W2FaF4AJjvdiY-119">
          <mxGeometry x="60" width="110" height="30" as="geometry">
            <mxRectangle width="110" height="30" as="alternateBounds" />
          </mxGeometry>
        </mxCell>
        <mxCell id="oF-FLK1W2FaF4AJjvdiY-131" style="edgeStyle=orthogonalEdgeStyle;rounded=0;orthogonalLoop=1;jettySize=auto;html=1;exitX=0;exitY=0.5;exitDx=0;exitDy=0;entryX=1;entryY=0.5;entryDx=0;entryDy=0;fillColor=#FF6666;strokeColor=#00FF00;" edge="1" parent="1" source="oF-FLK1W2FaF4AJjvdiY-128" target="oF-FLK1W2FaF4AJjvdiY-2">
          <mxGeometry relative="1" as="geometry" />
        </mxCell>
        <mxCell id="oF-FLK1W2FaF4AJjvdiY-132" style="edgeStyle=orthogonalEdgeStyle;rounded=0;orthogonalLoop=1;jettySize=auto;html=1;exitX=0;exitY=0.5;exitDx=0;exitDy=0;entryX=1;entryY=0.5;entryDx=0;entryDy=0;fillColor=#FF6666;strokeColor=#00FF00;" edge="1" parent="1" source="oF-FLK1W2FaF4AJjvdiY-66" target="oF-FLK1W2FaF4AJjvdiY-28">
          <mxGeometry relative="1" as="geometry" />
        </mxCell>
        <mxCell id="oF-FLK1W2FaF4AJjvdiY-133" style="edgeStyle=orthogonalEdgeStyle;rounded=0;orthogonalLoop=1;jettySize=auto;html=1;exitX=1;exitY=0.5;exitDx=0;exitDy=0;entryX=1;entryY=0.5;entryDx=0;entryDy=0;fillColor=#FF6666;strokeColor=#00FF00;" edge="1" parent="1" source="oF-FLK1W2FaF4AJjvdiY-99" target="oF-FLK1W2FaF4AJjvdiY-15">
          <mxGeometry relative="1" as="geometry" />
        </mxCell>
        <mxCell id="oF-FLK1W2FaF4AJjvdiY-134" style="edgeStyle=orthogonalEdgeStyle;rounded=0;orthogonalLoop=1;jettySize=auto;html=1;exitX=0;exitY=0.5;exitDx=0;exitDy=0;entryX=0;entryY=0.5;entryDx=0;entryDy=0;fillColor=#FF6666;strokeColor=#00FF00;" edge="1" parent="1" source="oF-FLK1W2FaF4AJjvdiY-116" target="oF-FLK1W2FaF4AJjvdiY-84">
          <mxGeometry relative="1" as="geometry" />
        </mxCell>
        <mxCell id="oF-FLK1W2FaF4AJjvdiY-135" style="edgeStyle=orthogonalEdgeStyle;rounded=0;orthogonalLoop=1;jettySize=auto;html=1;exitX=0;exitY=0.5;exitDx=0;exitDy=0;entryX=0.991;entryY=0.773;entryDx=0;entryDy=0;entryPerimeter=0;fillColor=#FF6666;strokeColor=#00FF00;" edge="1" parent="1" source="oF-FLK1W2FaF4AJjvdiY-103" target="oF-FLK1W2FaF4AJjvdiY-70">
          <mxGeometry relative="1" as="geometry" />
        </mxCell>
        <mxCell id="oF-FLK1W2FaF4AJjvdiY-136" style="edgeStyle=orthogonalEdgeStyle;rounded=0;orthogonalLoop=1;jettySize=auto;html=1;exitX=0;exitY=0.5;exitDx=0;exitDy=0;entryX=0;entryY=0.5;entryDx=0;entryDy=0;strokeColor=#00FF00;" edge="1" parent="1" source="oF-FLK1W2FaF4AJjvdiY-119" target="oF-FLK1W2FaF4AJjvdiY-28">
          <mxGeometry relative="1" as="geometry" />
        </mxCell>
        <mxCell id="oF-FLK1W2FaF4AJjvdiY-137" style="edgeStyle=orthogonalEdgeStyle;rounded=0;orthogonalLoop=1;jettySize=auto;html=1;exitX=1;exitY=0.5;exitDx=0;exitDy=0;entryX=1;entryY=0.5;entryDx=0;entryDy=0;fillColor=#FF6666;strokeColor=#00FF00;" edge="1" parent="1" source="oF-FLK1W2FaF4AJjvdiY-106" target="oF-FLK1W2FaF4AJjvdiY-28">
          <mxGeometry relative="1" as="geometry">
            <mxPoint x="270" y="240" as="targetPoint" />
          </mxGeometry>
        </mxCell>
      </root>
    </mxGraphModel>
  </diagram>
</mxfile>
